<mxfile host="app.diagrams.net" agent="Mozilla/5.0 (Windows NT 10.0; Win64; x64) AppleWebKit/537.36 (KHTML, like Gecko) Chrome/134.0.0.0 Safari/537.36" version="26.1.1">
  <diagram id="C5RBs43oDa-KdzZeNtuy" name="Page-1">
    <mxGraphModel dx="934" dy="534" grid="1" gridSize="10" guides="1" tooltips="1" connect="1" arrows="1" fold="1" page="1" pageScale="1" pageWidth="827" pageHeight="1169" math="0" shadow="0">
      <root>
        <mxCell id="WIyWlLk6GJQsqaUBKTNV-0" />
        <mxCell id="WIyWlLk6GJQsqaUBKTNV-1" parent="WIyWlLk6GJQsqaUBKTNV-0" />
        <mxCell id="mAj_YCG0cUgOoharWdE4-30" style="edgeStyle=orthogonalEdgeStyle;rounded=0;orthogonalLoop=1;jettySize=auto;html=1;exitX=0.5;exitY=1;exitDx=0;exitDy=0;entryX=0.5;entryY=0;entryDx=0;entryDy=0;" edge="1" parent="WIyWlLk6GJQsqaUBKTNV-1" source="WIyWlLk6GJQsqaUBKTNV-3" target="mAj_YCG0cUgOoharWdE4-20">
          <mxGeometry relative="1" as="geometry" />
        </mxCell>
        <mxCell id="WIyWlLk6GJQsqaUBKTNV-3" value="201-GENERATE-REPORT-RECORDS" style="rounded=1;whiteSpace=wrap;html=1;fontSize=12;glass=0;strokeWidth=1;shadow=0;" parent="WIyWlLk6GJQsqaUBKTNV-1" vertex="1">
          <mxGeometry x="310" y="90" width="120" height="40" as="geometry" />
        </mxCell>
        <mxCell id="mAj_YCG0cUgOoharWdE4-5" style="edgeStyle=orthogonalEdgeStyle;rounded=0;orthogonalLoop=1;jettySize=auto;html=1;exitX=0.5;exitY=1;exitDx=0;exitDy=0;entryX=0.5;entryY=0;entryDx=0;entryDy=0;" edge="1" parent="WIyWlLk6GJQsqaUBKTNV-1" source="mAj_YCG0cUgOoharWdE4-0" target="mAj_YCG0cUgOoharWdE4-2">
          <mxGeometry relative="1" as="geometry" />
        </mxCell>
        <mxCell id="mAj_YCG0cUgOoharWdE4-0" value="100-MAIN-PROCEDURE" style="rounded=1;whiteSpace=wrap;html=1;fontSize=12;glass=0;strokeWidth=1;shadow=0;" vertex="1" parent="WIyWlLk6GJQsqaUBKTNV-1">
          <mxGeometry x="10" y="90" width="120" height="40" as="geometry" />
        </mxCell>
        <mxCell id="mAj_YCG0cUgOoharWdE4-1" value="Stop run" style="rounded=1;whiteSpace=wrap;html=1;fontSize=12;glass=0;strokeWidth=1;shadow=0;" vertex="1" parent="WIyWlLk6GJQsqaUBKTNV-1">
          <mxGeometry x="10" y="410" width="120" height="40" as="geometry" />
        </mxCell>
        <mxCell id="mAj_YCG0cUgOoharWdE4-6" style="edgeStyle=orthogonalEdgeStyle;rounded=0;orthogonalLoop=1;jettySize=auto;html=1;entryX=0.5;entryY=0;entryDx=0;entryDy=0;" edge="1" parent="WIyWlLk6GJQsqaUBKTNV-1" source="mAj_YCG0cUgOoharWdE4-2" target="mAj_YCG0cUgOoharWdE4-3">
          <mxGeometry relative="1" as="geometry" />
        </mxCell>
        <mxCell id="mAj_YCG0cUgOoharWdE4-2" value="200-INITIALIZE" style="shape=process;whiteSpace=wrap;html=1;backgroundOutline=1;" vertex="1" parent="WIyWlLk6GJQsqaUBKTNV-1">
          <mxGeometry x="10" y="150" width="120" height="60" as="geometry" />
        </mxCell>
        <mxCell id="mAj_YCG0cUgOoharWdE4-7" style="edgeStyle=orthogonalEdgeStyle;rounded=0;orthogonalLoop=1;jettySize=auto;html=1;" edge="1" parent="WIyWlLk6GJQsqaUBKTNV-1" source="mAj_YCG0cUgOoharWdE4-3" target="mAj_YCG0cUgOoharWdE4-4">
          <mxGeometry relative="1" as="geometry" />
        </mxCell>
        <mxCell id="mAj_YCG0cUgOoharWdE4-3" value="201-GENERATE-REPORT-RECORDS" style="shape=process;whiteSpace=wrap;html=1;backgroundOutline=1;" vertex="1" parent="WIyWlLk6GJQsqaUBKTNV-1">
          <mxGeometry x="10" y="230" width="120" height="60" as="geometry" />
        </mxCell>
        <mxCell id="mAj_YCG0cUgOoharWdE4-8" style="edgeStyle=orthogonalEdgeStyle;rounded=0;orthogonalLoop=1;jettySize=auto;html=1;entryX=0.5;entryY=0;entryDx=0;entryDy=0;" edge="1" parent="WIyWlLk6GJQsqaUBKTNV-1" source="mAj_YCG0cUgOoharWdE4-4" target="mAj_YCG0cUgOoharWdE4-1">
          <mxGeometry relative="1" as="geometry" />
        </mxCell>
        <mxCell id="mAj_YCG0cUgOoharWdE4-4" value="202-TERMINATE" style="shape=process;whiteSpace=wrap;html=1;backgroundOutline=1;" vertex="1" parent="WIyWlLk6GJQsqaUBKTNV-1">
          <mxGeometry x="10" y="320" width="120" height="60" as="geometry" />
        </mxCell>
        <mxCell id="mAj_YCG0cUgOoharWdE4-17" style="edgeStyle=orthogonalEdgeStyle;rounded=0;orthogonalLoop=1;jettySize=auto;html=1;exitX=0.5;exitY=1;exitDx=0;exitDy=0;entryX=0.5;entryY=0;entryDx=0;entryDy=0;" edge="1" parent="WIyWlLk6GJQsqaUBKTNV-1" source="mAj_YCG0cUgOoharWdE4-9" target="mAj_YCG0cUgOoharWdE4-10">
          <mxGeometry relative="1" as="geometry" />
        </mxCell>
        <mxCell id="mAj_YCG0cUgOoharWdE4-9" value="200-INITIALIZE" style="rounded=1;whiteSpace=wrap;html=1;fontSize=12;glass=0;strokeWidth=1;shadow=0;" vertex="1" parent="WIyWlLk6GJQsqaUBKTNV-1">
          <mxGeometry x="140" y="90" width="120" height="40" as="geometry" />
        </mxCell>
        <mxCell id="mAj_YCG0cUgOoharWdE4-16" style="edgeStyle=orthogonalEdgeStyle;rounded=0;orthogonalLoop=1;jettySize=auto;html=1;exitX=0.5;exitY=1;exitDx=0;exitDy=0;entryX=0.5;entryY=0;entryDx=0;entryDy=0;" edge="1" parent="WIyWlLk6GJQsqaUBKTNV-1" source="mAj_YCG0cUgOoharWdE4-10" target="mAj_YCG0cUgOoharWdE4-11">
          <mxGeometry relative="1" as="geometry" />
        </mxCell>
        <mxCell id="mAj_YCG0cUgOoharWdE4-10" value="300-OPEN-FILES" style="shape=process;whiteSpace=wrap;html=1;backgroundOutline=1;" vertex="1" parent="WIyWlLk6GJQsqaUBKTNV-1">
          <mxGeometry x="140" y="150" width="120" height="60" as="geometry" />
        </mxCell>
        <mxCell id="mAj_YCG0cUgOoharWdE4-15" style="edgeStyle=orthogonalEdgeStyle;rounded=0;orthogonalLoop=1;jettySize=auto;html=1;exitX=0.5;exitY=1;exitDx=0;exitDy=0;entryX=0.5;entryY=0;entryDx=0;entryDy=0;" edge="1" parent="WIyWlLk6GJQsqaUBKTNV-1" source="mAj_YCG0cUgOoharWdE4-11" target="mAj_YCG0cUgOoharWdE4-12">
          <mxGeometry relative="1" as="geometry" />
        </mxCell>
        <mxCell id="mAj_YCG0cUgOoharWdE4-11" value="301-READ-STOCK-FILE" style="shape=process;whiteSpace=wrap;html=1;backgroundOutline=1;" vertex="1" parent="WIyWlLk6GJQsqaUBKTNV-1">
          <mxGeometry x="140" y="230" width="120" height="60" as="geometry" />
        </mxCell>
        <mxCell id="mAj_YCG0cUgOoharWdE4-13" style="edgeStyle=orthogonalEdgeStyle;rounded=0;orthogonalLoop=1;jettySize=auto;html=1;entryX=1;entryY=0.5;entryDx=0;entryDy=0;" edge="1" parent="WIyWlLk6GJQsqaUBKTNV-1" source="mAj_YCG0cUgOoharWdE4-12" target="mAj_YCG0cUgOoharWdE4-11">
          <mxGeometry relative="1" as="geometry">
            <Array as="points">
              <mxPoint x="280" y="340" />
              <mxPoint x="280" y="260" />
            </Array>
          </mxGeometry>
        </mxCell>
        <mxCell id="mAj_YCG0cUgOoharWdE4-14" value="No" style="edgeLabel;html=1;align=center;verticalAlign=middle;resizable=0;points=[];" vertex="1" connectable="0" parent="mAj_YCG0cUgOoharWdE4-13">
          <mxGeometry x="-0.3905" y="-2" relative="1" as="geometry">
            <mxPoint as="offset" />
          </mxGeometry>
        </mxCell>
        <mxCell id="mAj_YCG0cUgOoharWdE4-19" style="edgeStyle=orthogonalEdgeStyle;rounded=0;orthogonalLoop=1;jettySize=auto;html=1;exitX=0.5;exitY=1;exitDx=0;exitDy=0;entryX=0.5;entryY=0;entryDx=0;entryDy=0;" edge="1" parent="WIyWlLk6GJQsqaUBKTNV-1" source="mAj_YCG0cUgOoharWdE4-12" target="mAj_YCG0cUgOoharWdE4-18">
          <mxGeometry relative="1" as="geometry" />
        </mxCell>
        <mxCell id="mAj_YCG0cUgOoharWdE4-12" value="At end of file?" style="rhombus;whiteSpace=wrap;html=1;" vertex="1" parent="WIyWlLk6GJQsqaUBKTNV-1">
          <mxGeometry x="160" y="300" width="80" height="80" as="geometry" />
        </mxCell>
        <mxCell id="mAj_YCG0cUgOoharWdE4-29" style="edgeStyle=orthogonalEdgeStyle;rounded=0;orthogonalLoop=1;jettySize=auto;html=1;exitX=0.5;exitY=1;exitDx=0;exitDy=0;" edge="1" parent="WIyWlLk6GJQsqaUBKTNV-1" source="mAj_YCG0cUgOoharWdE4-18" target="mAj_YCG0cUgOoharWdE4-28">
          <mxGeometry relative="1" as="geometry" />
        </mxCell>
        <mxCell id="mAj_YCG0cUgOoharWdE4-18" value="305-CLOSE-STOCK-FILE" style="shape=process;whiteSpace=wrap;html=1;backgroundOutline=1;" vertex="1" parent="WIyWlLk6GJQsqaUBKTNV-1">
          <mxGeometry x="140" y="410" width="120" height="60" as="geometry" />
        </mxCell>
        <mxCell id="mAj_YCG0cUgOoharWdE4-31" style="edgeStyle=orthogonalEdgeStyle;rounded=0;orthogonalLoop=1;jettySize=auto;html=1;exitX=0.5;exitY=1;exitDx=0;exitDy=0;entryX=0.5;entryY=0;entryDx=0;entryDy=0;" edge="1" parent="WIyWlLk6GJQsqaUBKTNV-1" source="mAj_YCG0cUgOoharWdE4-20" target="mAj_YCG0cUgOoharWdE4-21">
          <mxGeometry relative="1" as="geometry" />
        </mxCell>
        <mxCell id="mAj_YCG0cUgOoharWdE4-20" value="302-CREATE-REPORT-HEADER" style="shape=process;whiteSpace=wrap;html=1;backgroundOutline=1;" vertex="1" parent="WIyWlLk6GJQsqaUBKTNV-1">
          <mxGeometry x="310" y="150" width="120" height="60" as="geometry" />
        </mxCell>
        <mxCell id="mAj_YCG0cUgOoharWdE4-23" style="edgeStyle=orthogonalEdgeStyle;rounded=0;orthogonalLoop=1;jettySize=auto;html=1;exitX=0.5;exitY=1;exitDx=0;exitDy=0;entryX=0.5;entryY=0;entryDx=0;entryDy=0;" edge="1" parent="WIyWlLk6GJQsqaUBKTNV-1" source="mAj_YCG0cUgOoharWdE4-21" target="mAj_YCG0cUgOoharWdE4-22">
          <mxGeometry relative="1" as="geometry" />
        </mxCell>
        <mxCell id="mAj_YCG0cUgOoharWdE4-21" value="302-CREATE-REPORT-LINE" style="shape=process;whiteSpace=wrap;html=1;backgroundOutline=1;" vertex="1" parent="WIyWlLk6GJQsqaUBKTNV-1">
          <mxGeometry x="310" y="230" width="120" height="60" as="geometry" />
        </mxCell>
        <mxCell id="mAj_YCG0cUgOoharWdE4-34" style="edgeStyle=orthogonalEdgeStyle;rounded=0;orthogonalLoop=1;jettySize=auto;html=1;exitX=1;exitY=0.5;exitDx=0;exitDy=0;entryX=0;entryY=0.5;entryDx=0;entryDy=0;" edge="1" parent="WIyWlLk6GJQsqaUBKTNV-1" source="mAj_YCG0cUgOoharWdE4-22" target="mAj_YCG0cUgOoharWdE4-24">
          <mxGeometry relative="1" as="geometry" />
        </mxCell>
        <mxCell id="mAj_YCG0cUgOoharWdE4-35" value="No" style="edgeLabel;html=1;align=center;verticalAlign=middle;resizable=0;points=[];" vertex="1" connectable="0" parent="mAj_YCG0cUgOoharWdE4-34">
          <mxGeometry x="-0.05" y="1" relative="1" as="geometry">
            <mxPoint as="offset" />
          </mxGeometry>
        </mxCell>
        <mxCell id="mAj_YCG0cUgOoharWdE4-46" style="edgeStyle=orthogonalEdgeStyle;rounded=0;orthogonalLoop=1;jettySize=auto;html=1;exitX=0.5;exitY=1;exitDx=0;exitDy=0;entryX=0.5;entryY=0;entryDx=0;entryDy=0;" edge="1" parent="WIyWlLk6GJQsqaUBKTNV-1" source="mAj_YCG0cUgOoharWdE4-22" target="mAj_YCG0cUgOoharWdE4-27">
          <mxGeometry relative="1" as="geometry" />
        </mxCell>
        <mxCell id="mAj_YCG0cUgOoharWdE4-47" value="Yes" style="edgeLabel;html=1;align=center;verticalAlign=middle;resizable=0;points=[];" vertex="1" connectable="0" parent="mAj_YCG0cUgOoharWdE4-46">
          <mxGeometry x="-0.2905" y="-3" relative="1" as="geometry">
            <mxPoint as="offset" />
          </mxGeometry>
        </mxCell>
        <mxCell id="mAj_YCG0cUgOoharWdE4-22" value="At end of file?" style="rhombus;whiteSpace=wrap;html=1;" vertex="1" parent="WIyWlLk6GJQsqaUBKTNV-1">
          <mxGeometry x="330" y="370" width="80" height="80" as="geometry" />
        </mxCell>
        <mxCell id="mAj_YCG0cUgOoharWdE4-36" style="edgeStyle=orthogonalEdgeStyle;rounded=0;orthogonalLoop=1;jettySize=auto;html=1;exitX=1;exitY=0.5;exitDx=0;exitDy=0;entryX=0;entryY=0.5;entryDx=0;entryDy=0;" edge="1" parent="WIyWlLk6GJQsqaUBKTNV-1" source="mAj_YCG0cUgOoharWdE4-24" target="mAj_YCG0cUgOoharWdE4-32">
          <mxGeometry relative="1" as="geometry" />
        </mxCell>
        <mxCell id="mAj_YCG0cUgOoharWdE4-24" value="401-SEARCH-STOCK-RECORD" style="shape=process;whiteSpace=wrap;html=1;backgroundOutline=1;" vertex="1" parent="WIyWlLk6GJQsqaUBKTNV-1">
          <mxGeometry x="450" y="450" width="120" height="60" as="geometry" />
        </mxCell>
        <mxCell id="mAj_YCG0cUgOoharWdE4-41" style="edgeStyle=orthogonalEdgeStyle;rounded=0;orthogonalLoop=1;jettySize=auto;html=1;exitX=0.5;exitY=1;exitDx=0;exitDy=0;entryX=1;entryY=0.5;entryDx=0;entryDy=0;" edge="1" parent="WIyWlLk6GJQsqaUBKTNV-1" source="mAj_YCG0cUgOoharWdE4-25" target="mAj_YCG0cUgOoharWdE4-26">
          <mxGeometry relative="1" as="geometry" />
        </mxCell>
        <mxCell id="mAj_YCG0cUgOoharWdE4-42" value="Yes" style="edgeLabel;html=1;align=center;verticalAlign=middle;resizable=0;points=[];" vertex="1" connectable="0" parent="mAj_YCG0cUgOoharWdE4-41">
          <mxGeometry x="-0.3667" y="2" relative="1" as="geometry">
            <mxPoint as="offset" />
          </mxGeometry>
        </mxCell>
        <mxCell id="mAj_YCG0cUgOoharWdE4-48" style="edgeStyle=orthogonalEdgeStyle;rounded=0;orthogonalLoop=1;jettySize=auto;html=1;exitX=0;exitY=0.5;exitDx=0;exitDy=0;entryX=1;entryY=0.5;entryDx=0;entryDy=0;" edge="1" parent="WIyWlLk6GJQsqaUBKTNV-1" source="mAj_YCG0cUgOoharWdE4-25" target="mAj_YCG0cUgOoharWdE4-21">
          <mxGeometry relative="1" as="geometry" />
        </mxCell>
        <mxCell id="mAj_YCG0cUgOoharWdE4-49" value="No" style="edgeLabel;html=1;align=center;verticalAlign=middle;resizable=0;points=[];" vertex="1" connectable="0" parent="mAj_YCG0cUgOoharWdE4-48">
          <mxGeometry x="-0.6552" y="3" relative="1" as="geometry">
            <mxPoint as="offset" />
          </mxGeometry>
        </mxCell>
        <mxCell id="mAj_YCG0cUgOoharWdE4-25" value="Stock Found?" style="rhombus;whiteSpace=wrap;html=1;" vertex="1" parent="WIyWlLk6GJQsqaUBKTNV-1">
          <mxGeometry x="690" y="220" width="80" height="80" as="geometry" />
        </mxCell>
        <mxCell id="mAj_YCG0cUgOoharWdE4-50" style="edgeStyle=orthogonalEdgeStyle;rounded=0;orthogonalLoop=1;jettySize=auto;html=1;exitX=0;exitY=0.5;exitDx=0;exitDy=0;entryX=1;entryY=0.5;entryDx=0;entryDy=0;" edge="1" parent="WIyWlLk6GJQsqaUBKTNV-1" source="mAj_YCG0cUgOoharWdE4-26" target="mAj_YCG0cUgOoharWdE4-21">
          <mxGeometry relative="1" as="geometry" />
        </mxCell>
        <mxCell id="mAj_YCG0cUgOoharWdE4-26" value="402-CREATE-REPORT-RECORD" style="shape=process;whiteSpace=wrap;html=1;backgroundOutline=1;" vertex="1" parent="WIyWlLk6GJQsqaUBKTNV-1">
          <mxGeometry x="500" y="310" width="120" height="60" as="geometry" />
        </mxCell>
        <mxCell id="mAj_YCG0cUgOoharWdE4-52" style="edgeStyle=orthogonalEdgeStyle;rounded=0;orthogonalLoop=1;jettySize=auto;html=1;exitX=0.5;exitY=1;exitDx=0;exitDy=0;entryX=0.5;entryY=0;entryDx=0;entryDy=0;" edge="1" parent="WIyWlLk6GJQsqaUBKTNV-1" source="mAj_YCG0cUgOoharWdE4-27" target="mAj_YCG0cUgOoharWdE4-51">
          <mxGeometry relative="1" as="geometry" />
        </mxCell>
        <mxCell id="mAj_YCG0cUgOoharWdE4-27" value="304-CREATE-REPORT-FOOTER" style="shape=process;whiteSpace=wrap;html=1;backgroundOutline=1;" vertex="1" parent="WIyWlLk6GJQsqaUBKTNV-1">
          <mxGeometry x="310" y="500" width="120" height="60" as="geometry" />
        </mxCell>
        <mxCell id="mAj_YCG0cUgOoharWdE4-28" value="return" style="rounded=1;whiteSpace=wrap;html=1;fontSize=12;glass=0;strokeWidth=1;shadow=0;" vertex="1" parent="WIyWlLk6GJQsqaUBKTNV-1">
          <mxGeometry x="140" y="500" width="120" height="40" as="geometry" />
        </mxCell>
        <mxCell id="mAj_YCG0cUgOoharWdE4-39" style="edgeStyle=orthogonalEdgeStyle;rounded=0;orthogonalLoop=1;jettySize=auto;html=1;exitX=0.5;exitY=1;exitDx=0;exitDy=0;entryX=1;entryY=0.5;entryDx=0;entryDy=0;" edge="1" parent="WIyWlLk6GJQsqaUBKTNV-1" source="mAj_YCG0cUgOoharWdE4-32" target="mAj_YCG0cUgOoharWdE4-25">
          <mxGeometry relative="1" as="geometry" />
        </mxCell>
        <mxCell id="mAj_YCG0cUgOoharWdE4-40" value="Yes" style="edgeLabel;html=1;align=center;verticalAlign=middle;resizable=0;points=[];" vertex="1" connectable="0" parent="mAj_YCG0cUgOoharWdE4-39">
          <mxGeometry x="0.1333" y="1" relative="1" as="geometry">
            <mxPoint as="offset" />
          </mxGeometry>
        </mxCell>
        <mxCell id="mAj_YCG0cUgOoharWdE4-32" value="Stock Found or SUB-1 &amp;gt; 20?" style="rhombus;whiteSpace=wrap;html=1;" vertex="1" parent="WIyWlLk6GJQsqaUBKTNV-1">
          <mxGeometry x="600" y="440" width="80" height="80" as="geometry" />
        </mxCell>
        <mxCell id="mAj_YCG0cUgOoharWdE4-37" style="edgeStyle=orthogonalEdgeStyle;rounded=0;orthogonalLoop=1;jettySize=auto;html=1;exitX=0.5;exitY=0;exitDx=0;exitDy=0;entryX=0.444;entryY=-0.011;entryDx=0;entryDy=0;entryPerimeter=0;" edge="1" parent="WIyWlLk6GJQsqaUBKTNV-1" source="mAj_YCG0cUgOoharWdE4-32" target="mAj_YCG0cUgOoharWdE4-24">
          <mxGeometry relative="1" as="geometry" />
        </mxCell>
        <mxCell id="mAj_YCG0cUgOoharWdE4-38" value="No" style="edgeLabel;html=1;align=center;verticalAlign=middle;resizable=0;points=[];" vertex="1" connectable="0" parent="mAj_YCG0cUgOoharWdE4-37">
          <mxGeometry x="-0.269" y="-3" relative="1" as="geometry">
            <mxPoint as="offset" />
          </mxGeometry>
        </mxCell>
        <mxCell id="mAj_YCG0cUgOoharWdE4-51" value="return" style="rounded=1;whiteSpace=wrap;html=1;fontSize=12;glass=0;strokeWidth=1;shadow=0;" vertex="1" parent="WIyWlLk6GJQsqaUBKTNV-1">
          <mxGeometry x="310" y="585" width="120" height="40" as="geometry" />
        </mxCell>
        <mxCell id="mAj_YCG0cUgOoharWdE4-56" style="edgeStyle=orthogonalEdgeStyle;rounded=0;orthogonalLoop=1;jettySize=auto;html=1;exitX=0.5;exitY=1;exitDx=0;exitDy=0;entryX=0.5;entryY=0;entryDx=0;entryDy=0;" edge="1" parent="WIyWlLk6GJQsqaUBKTNV-1" source="mAj_YCG0cUgOoharWdE4-53" target="mAj_YCG0cUgOoharWdE4-54">
          <mxGeometry relative="1" as="geometry" />
        </mxCell>
        <mxCell id="mAj_YCG0cUgOoharWdE4-53" value="202-TERMINATE" style="rounded=1;whiteSpace=wrap;html=1;fontSize=12;glass=0;strokeWidth=1;shadow=0;" vertex="1" parent="WIyWlLk6GJQsqaUBKTNV-1">
          <mxGeometry x="820" y="90" width="120" height="40" as="geometry" />
        </mxCell>
        <mxCell id="mAj_YCG0cUgOoharWdE4-57" style="edgeStyle=orthogonalEdgeStyle;rounded=0;orthogonalLoop=1;jettySize=auto;html=1;exitX=0.5;exitY=1;exitDx=0;exitDy=0;" edge="1" parent="WIyWlLk6GJQsqaUBKTNV-1" source="mAj_YCG0cUgOoharWdE4-54" target="mAj_YCG0cUgOoharWdE4-55">
          <mxGeometry relative="1" as="geometry" />
        </mxCell>
        <mxCell id="mAj_YCG0cUgOoharWdE4-54" value="306-CLOSE-FILES" style="shape=process;whiteSpace=wrap;html=1;backgroundOutline=1;" vertex="1" parent="WIyWlLk6GJQsqaUBKTNV-1">
          <mxGeometry x="820" y="150" width="120" height="60" as="geometry" />
        </mxCell>
        <mxCell id="mAj_YCG0cUgOoharWdE4-55" value="return" style="rounded=1;whiteSpace=wrap;html=1;fontSize=12;glass=0;strokeWidth=1;shadow=0;" vertex="1" parent="WIyWlLk6GJQsqaUBKTNV-1">
          <mxGeometry x="820" y="230" width="120" height="40" as="geometry" />
        </mxCell>
        <mxCell id="mAj_YCG0cUgOoharWdE4-58" value="Project 2 - Flowchart&lt;div&gt;Paul Squires - 040766405&lt;/div&gt;&lt;div&gt;Cole Brito - 041074688&lt;/div&gt;" style="shape=note;whiteSpace=wrap;html=1;backgroundOutline=1;darkOpacity=0.05;" vertex="1" parent="WIyWlLk6GJQsqaUBKTNV-1">
          <mxGeometry x="510" y="90" width="180" height="100" as="geometry" />
        </mxCell>
      </root>
    </mxGraphModel>
  </diagram>
</mxfile>
